<svg width="854" height="277" viewBox="0 0 854 277" fill="none" xmlns="http://www.w3.org/2000/svg">
<path d="M30.3193 179.683L0.185547 162.281V69.1715L120.007 0L150.14 17.3707L110.763 40.0208L200.657 91.7551V139.256L170.254 156.76V109.294L80.4616 57.4895L30.3542 86.3707L30.3193 179.683Z" fill="url(#paint0_linear)"/>
<path d="M129.25 39.7411L159.395 22.3599L240.01 68.9441L239.951 207.301L209.834 224.7L209.925 179.273L120.154 231.221L79.0275 207.451L79.0834 172.371L120.182 196.119L209.96 144.298L210.027 86.4583L129.25 39.7411Z" fill="url(#paint1_linear)"/>
<path d="M200.556 194.793L200.668 229.591L120.192 276.416L0.143444 207.637L0 172.857L39.3806 195.5L38.8873 91.7866L79.9472 67.8944L110.368 85.3701L69.3394 109.245L69.7207 212.906L119.884 241.692L200.556 194.793Z" fill="url(#paint2_linear)"/>
<path d="M457.451 36C467.93 36 476.147 39.1468 481.505 44.4721C485.911 49.1922 488.411 55.3648 488.411 62.7476L488.409 63.4415C488.236 76.7891 480.425 84.9326 469.393 88.4199L468.645 88.6479L491.15 120.721H473.765L453.284 91.1895L442.533 91.1872L450.077 77.9947L456.38 77.9973C466.62 77.9973 473.222 72.7957 473.517 64.4259L473.527 63.8368L473.524 63.2719C473.378 54.2833 467.087 49.5553 456.261 49.5553H434.946L434.944 75.7447L434.932 75.7431V94.6364L434.944 94.6298L434.946 120.721H420.3V36H457.451Z" fill="#67F9D9"/>
<path d="M632.872 36C647.252 36 656.284 40.0483 664.841 47.3114L655.571 58.3846C649.153 52.9075 642.736 49.5736 632.277 49.5736C617.065 49.5736 605.299 62.9092 605.299 78.8641L605.306 79.8557C605.632 96.6164 616.84 108.869 633.585 108.869C641.547 108.869 648.559 106.369 653.67 102.558V87.0798L667.812 74.2205V109.226C659.493 116.251 647.846 122.205 633.109 122.205C607.082 122.205 589.968 103.63 589.968 79.3404L589.974 78.3426C590.354 55.3378 607.95 36 632.872 36ZM722.719 36C748.271 36 766.098 55.4079 766.098 78.8641L766.092 79.8538C765.709 102.862 747.759 122.205 722.482 122.205C696.93 122.205 679.103 102.797 679.103 79.3404L679.109 78.3507C679.492 55.3424 697.442 36 722.719 36ZM363.882 36.8335L400.486 120.776L385.605 120.775L356.87 54.3363L328.343 120.775L313.728 120.776L350.333 36.8335H363.882ZM550.986 36.8335L587.591 120.776L572.71 120.775L543.975 54.3363L515.448 120.775L500.833 120.776L537.438 36.8335H550.986ZM794.632 37.4288L839.2 95.0573V37.4288H853.58V120.776H841.339L795.464 61.4804V120.776H781.084V37.4288H794.632ZM722.482 49.5736C705.962 49.5736 694.434 62.671 694.434 78.8641L694.441 79.8148C694.778 95.6847 706.326 108.631 722.719 108.631C739.239 108.631 750.767 95.5335 750.767 79.3404L750.76 78.3898C750.423 62.5198 738.875 49.5736 722.482 49.5736Z" fill="#67F9D9"/>
<rect x="584.532" y="161.429" width="14.706" height="83.8242" fill="#67F9D9"/>
<path d="M352.749 245.25C367.994 245.25 377.728 239.728 386.054 230.681L376.79 221.282C369.753 227.861 363.186 231.856 353.218 231.856C337.661 231.856 326.356 219.074 326.132 203.2L326.128 202.483C326.128 186.387 337.621 173.581 353.101 173.581C362.6 173.581 369.519 177.575 376.203 183.685L385.468 172.993C377.611 165.474 368.463 160.187 353.218 160.187C328.721 160.187 311.35 178.957 311.005 202.018L311 202.953C311 226.569 328.825 245.25 352.749 245.25Z" fill="#67F9D9"/>
<path d="M572.759 245.371L536.155 161.429H522.606L486.001 245.371L500.617 245.371L529.143 178.932L557.879 245.371L572.759 245.371Z" fill="#67F9D9"/>
<path fill-rule="evenodd" clip-rule="evenodd" d="M402.177 161.429H416.883V245.253H402.177V161.429ZM459.531 161.429H474.237V245.253H459.531V211.429H423.501L431.589 196.723L459.531 196.723V161.429Z" fill="#67F9D9"/>
<path d="M676.471 219.057L631.904 161.429H618.355V244.776H632.736V185.481L678.611 244.776H690.852V161.429H676.471V219.057Z" fill="#67F9D9"/>
<defs>
<linearGradient id="paint0_linear" x1="85.1974" y1="71.4559" x2="189.633" y2="150.241" gradientUnits="userSpaceOnUse">
<stop stop-color="#67F9D9"/>
<stop offset="1" stop-color="#67F9D9" stop-opacity="0"/>
</linearGradient>
<linearGradient id="paint1_linear" x1="185.969" y1="131.919" x2="82.3999" y2="195.52" gradientUnits="userSpaceOnUse">
<stop stop-color="#67F9D9"/>
<stop offset="1" stop-color="#67F9D9" stop-opacity="0"/>
</linearGradient>
<linearGradient id="paint2_linear" x1="58.6305" y1="205.207" x2="76.2402" y2="70.7944" gradientUnits="userSpaceOnUse">
<stop stop-color="#67F9D9"/>
<stop offset="1" stop-color="#67F9D9" stop-opacity="0"/>
</linearGradient>
</defs>
</svg>
