<svg width="958" height="384" viewBox="0 0 958 384" fill="none" xmlns="http://www.w3.org/2000/svg">
<path d="M80.3193 229.683L50.1856 212.281V119.171L170.007 50L200.14 67.3707L160.763 90.0208L250.657 141.755V189.256L220.254 206.76V159.294L130.462 107.49L80.3543 136.371L80.3193 229.683Z" fill="url(#paint0_linear)"/>
<path d="M179.25 89.741L209.395 72.3598L290.01 118.944L289.951 257.301L259.834 274.7L259.925 229.273L170.154 281.221L129.027 257.451L129.083 222.371L170.182 246.119L259.96 194.298L260.027 136.458L179.25 89.741Z" fill="url(#paint1_linear)"/>
<path d="M250.556 244.793L250.668 279.591L170.192 326.416L50.1435 257.637L50 222.857L89.3806 245.5L88.8873 141.787L129.947 117.894L160.368 135.37L119.339 159.245L119.721 262.906L169.884 291.692L250.556 244.793Z" fill="url(#paint2_linear)"/>
<path d="M507.451 86C517.93 86 526.146 89.1468 531.505 94.4721C535.911 99.1922 538.411 105.365 538.411 112.748L538.408 113.442C538.236 126.789 530.424 134.933 519.393 138.42L518.645 138.648L541.15 170.721H523.765L503.284 141.19L492.533 141.187L500.077 127.995L506.38 127.997C516.62 127.997 523.222 122.796 523.516 114.426L523.527 113.837L523.524 113.272C523.378 104.283 517.087 99.5553 506.261 99.5553H484.946L484.944 125.745L484.932 125.743V144.636L484.944 144.63L484.946 170.721H470.3V86H507.451Z" fill="white"/>
<path d="M682.872 86C697.252 86 706.284 90.0483 714.841 97.3114L705.571 108.385C699.153 102.908 692.736 99.5736 682.277 99.5736C667.065 99.5736 655.299 112.909 655.299 128.864L655.306 129.856C655.632 146.616 666.84 158.869 683.585 158.869C691.547 158.869 698.559 156.369 703.67 152.558V137.08L717.812 124.221V159.226C709.493 166.251 697.846 172.205 683.109 172.205C657.082 172.205 639.968 153.63 639.968 129.34L639.974 128.343C640.354 105.338 657.95 86 682.872 86ZM772.719 86C798.271 86 816.098 105.408 816.098 128.864L816.092 129.854C815.709 152.862 797.759 172.205 772.482 172.205C746.93 172.205 729.103 152.797 729.103 129.34L729.109 128.351C729.492 105.342 747.442 86 772.719 86ZM413.882 86.8335L450.486 170.776L435.605 170.775L406.87 104.336L378.343 170.775L363.728 170.776L400.333 86.8335H413.882ZM600.986 86.8335L637.591 170.776L622.71 170.775L593.975 104.336L565.448 170.775L550.833 170.776L587.438 86.8335H600.986ZM844.632 87.4288L889.2 145.057V87.4288H903.58V170.776H891.339L845.464 111.48V170.776H831.084V87.4288H844.632ZM772.482 99.5736C755.962 99.5736 744.434 112.671 744.434 128.864L744.441 129.815C744.778 145.685 756.326 158.631 772.719 158.631C789.239 158.631 800.767 145.534 800.767 129.34L800.76 128.39C800.423 112.52 788.875 99.5736 772.482 99.5736Z" fill="white"/>
<rect x="634.532" y="211.429" width="14.706" height="83.8242" fill="#67F9D9"/>
<path d="M402.749 295.25C417.994 295.25 427.728 289.728 436.054 280.681L426.79 271.282C419.753 277.861 413.186 281.856 403.218 281.856C387.661 281.856 376.356 269.074 376.132 253.2L376.128 252.483C376.128 236.387 387.621 223.581 403.101 223.581C412.6 223.581 419.519 227.575 426.203 233.685L435.468 222.993C427.611 215.474 418.463 210.187 403.218 210.187C378.721 210.187 361.35 228.957 361.005 252.018L361 252.953C361 276.569 378.825 295.25 402.749 295.25Z" fill="#67F9D9"/>
<path d="M622.759 295.371L586.155 211.429H572.606L536.001 295.371L550.617 295.371L579.143 228.932L607.878 295.371L622.759 295.371Z" fill="#67F9D9"/>
<path fill-rule="evenodd" clip-rule="evenodd" d="M452.177 211.429H466.883V295.253H452.177V211.429ZM509.531 211.429H524.237V295.253H509.531V261.429H473.501L481.589 246.723L509.531 246.723V211.429Z" fill="#67F9D9"/>
<path d="M726.471 269.057L681.904 211.429H668.355V294.776H682.736V235.481L728.611 294.776H740.852V211.429H726.471V269.057Z" fill="#67F9D9"/>
<defs>
<linearGradient id="paint0_linear" x1="135.197" y1="121.456" x2="239.633" y2="200.241" gradientUnits="userSpaceOnUse">
<stop stop-color="#67F9D9"/>
<stop offset="1" stop-color="#67F9D9" stop-opacity="0"/>
</linearGradient>
<linearGradient id="paint1_linear" x1="235.969" y1="181.919" x2="132.4" y2="245.52" gradientUnits="userSpaceOnUse">
<stop stop-color="#67F9D9"/>
<stop offset="1" stop-color="#67F9D9" stop-opacity="0"/>
</linearGradient>
<linearGradient id="paint2_linear" x1="108.631" y1="255.207" x2="126.24" y2="120.794" gradientUnits="userSpaceOnUse">
<stop stop-color="#67F9D9"/>
<stop offset="1" stop-color="#67F9D9" stop-opacity="0"/>
</linearGradient>
</defs>
</svg>
